# xmcd
#
# Track frame offsets: 
#        150
#        14126
#        36009
#        53838
#        74105
#        93557
#        120664
#        139207
#        157063
#        169179
#        191832
#        204851
#        222074
#        241345
#        254775
#        277692
#        293117
#        308048
#
# Disc length: 4298 seconds
#
# Revision: 0
# Processed by: cddbd v1.5.2PL0 Copyright (c) Steve Scherf et al.
# Submitted via: ExactAudioCopy v1.0b2
#
DISCID=1610c812
DTITLE=Various Artist - Daughters Of Alamo
DYEAR=2009
DGENRE=Blues
TTITLE0=Lavelle White - Soul Deep
TTITLE1=Lavelle White - Livin' For That City
TTITLE2=Lavelle White - Oh Happy Day
TTITLE3=Lavelle White - Movin'
TTITLE4=Toni Price - Daylight
TTITLE5=Toni Price - Richest One
TTITLE6=Toni Price - Moonlight Blues
TTITLE7=Lou Ann Barton - Sugar Coated Love
TTITLE8=Lou Ann Barton - Sexy Ways
TTITLE9=Lou Ann Barton - Shake your Hips
TTITLE10=Lou Ann Barton - It's Raining
TTITLE11=Angela Strehli - I Wouldn't Treat A Dog
TTITLE12=Angela Strehli - Be Bop Man
TTITLE13=Angela Strehli - It Hurts Me Too
TTITLE14=Angela Strehli - Mean Mistreater
TTITLE15=Sue Foley - Come Into My Arms
TTITLE16=Sue Foley - Sad Sad City
TTITLE17=Sue Foley - Cry For me
EXTD=
EXTT0=
EXTT1=
EXTT2=
EXTT3=
EXTT4=
EXTT5=
EXTT6=
EXTT7=
EXTT8=
EXTT9=
EXTT10=
EXTT11=
EXTT12=
EXTT13=
EXTT14=
EXTT15=
EXTT16=
EXTT17=
PLAYORDER=
